# xmcd
#
# Track frame offsets:
# 150
# 15728
# 26868
# 42730
# 53738
# 64428
# 82309
# 94346
# 102867
# 120836
# 134608
# 147433
#
# Disc length: 2144 seconds
#
#
# Revision: 0
# Processed by: cddbd v1.5.2PL0 Copyright (c) Steve Scherf et al.
# Submitted via: FreeRIP 2.951 
#
DISCID=b4085e0c
DTITLE=Keith Allen - Red's Gospel Favorites
DYEAR=1900
DGENRE=Gospel
TTITLE0=Amazing Grace
TTITLE1=Walking In Jerusalem
TTITLE2=Build My Mansion
TTITLE3=I Saw The Light
TTITLE4=Put Your Hand In the Hand  ...He's Got The Whole World
TTITLE5=In The Garden
TTITLE6=You'll Never Walk Alone
TTITLE7=I'll Fly Away
TTITLE8=His Eye Is On The Sparrow
TTITLE9=Swing Low - SWing Down Chariot
TTITLE10=Come Follow ME
TTITLE11=How Great Thou Art
EXTD=
EXTT0=
EXTT1=
EXTT2=
EXTT3=
EXTT4=
EXTT5=
EXTT6=
EXTT7=
EXTT8=
EXTT9=
EXTT10=
EXTT11=
PLAYORDER=
